HIERARCHY
ROOT Hips
{
	OFFSET 0.000000 71.427986 0.000000
	CHANNELS 6 Xposition Yposition Zposition Xrotation Yrotation Zrotation
	JOINT Pelvis
	{
		OFFSET 0.000000 0.000000 0.000000
		CHANNELS 3 Xrotation Yrotation Zrotation
		JOINT LeftUpLeg
		{
			OFFSET 6.797100 -2.508499 -1.318700
			CHANNELS 3 Xrotation Yrotation Zrotation
			JOINT LeftLeg
			{
				OFFSET 0.069008 -29.241863 0.690200
				CHANNELS 3 Xrotation Yrotation Zrotation
				JOINT LeftFoot
				{
					OFFSET -0.069008 -29.568123 -0.266800
					CHANNELS 3 Xrotation Yrotation Zrotation
					JOINT LeftToeBase
					{
						OFFSET 3.145500 -8.631000 16.059900
						CHANNELS 3 Xrotation Yrotation Zrotation
						End Site
						{
							OFFSET 0.000000 18.501587 0.000000
						}
					}
				}
			}
			JOINT Left_ShortSleeve
			{
				OFFSET 0.265923 -10.480953 1.153800
				CHANNELS 3 Xrotation Yrotation Zrotation
				End Site
				{
					OFFSET 1.725763 19.823879 0.000000
				}
			}
		}
		JOINT RightUpLeg
		{
			OFFSET -6.797100 -2.508499 -1.318700
			CHANNELS 3 Xrotation Yrotation Zrotation
			JOINT RightLeg
			{
				OFFSET -0.082453 -29.241932 0.688000
				CHANNELS 3 Xrotation Yrotation Zrotation
				JOINT RightFoot
				{
					OFFSET 0.082453 -29.568058 -0.264600
					CHANNELS 3 Xrotation Yrotation Zrotation
					JOINT RightToeBase
					{
						OFFSET -3.115300 -8.682800 16.113400
						CHANNELS 3 Xrotation Yrotation Zrotation
						End Site
						{
							OFFSET 0.000000 18.567114 0.000000
						}
					}
				}
			}
			JOINT Right_ShortSleeve
			{
				OFFSET -0.265923 -10.480953 1.153800
				CHANNELS 3 Xrotation Yrotation Zrotation
				End Site
				{
					OFFSET -1.725766 19.823910 0.000000
				}
			}
		}
	}
	JOINT Spine
	{
		OFFSET 0.000000 13.368103 0.470500
		CHANNELS 3 Xrotation Yrotation Zrotation
		JOINT Spine1
		{
			OFFSET 0.147000 13.837402 0.538800
			CHANNELS 3 Xrotation Yrotation Zrotation
			JOINT Spine2
			{
				OFFSET 0.168000 16.242897 -1.435500
				CHANNELS 3 Xrotation Yrotation Zrotation
				JOINT Neck
				{
					OFFSET 0.217200 18.631500 -1.679100
					CHANNELS 3 Xrotation Yrotation Zrotation
					JOINT Head
					{
						OFFSET 0.000000 6.599396 1.385900
						CHANNELS 3 Xrotation Yrotation Zrotation
						JOINT Hat
						{
							OFFSET -0.532200 27.220596 -10.096100
							CHANNELS 3 Xrotation Yrotation Zrotation
							End Site
							{
								OFFSET 0.000000 22.029861 0.000000
							}
						}
						JOINT HairD
						{
							OFFSET -10.777400 17.437393 -1.325900
							CHANNELS 3 Xrotation Yrotation Zrotation
							JOINT HairD1
							{
								OFFSET -3.290299 -11.051193 1.062200
								CHANNELS 3 Xrotation Yrotation Zrotation
								End Site
								{
									OFFSET 0.000000 11.579437 0.000000
								}
							}
						}
						JOINT HairB
						{
							OFFSET -10.777400 17.437393 1.467900
							CHANNELS 3 Xrotation Yrotation Zrotation
							JOINT HairB1
							{
								OFFSET -1.561200 -12.956299 3.590200
								CHANNELS 3 Xrotation Yrotation Zrotation
								End Site
								{
									OFFSET 0.000000 13.534866 0.000000
								}
							}
						}
						JOINT HairA
						{
							OFFSET 9.713100 17.437393 1.467900
							CHANNELS 3 Xrotation Yrotation Zrotation
							JOINT HairA1
							{
								OFFSET 1.561200 -12.956299 3.590200
								CHANNELS 3 Xrotation Yrotation Zrotation
								End Site
								{
									OFFSET 0.000000 13.534866 0.000000
								}
							}
						}
						JOINT HairC
						{
							OFFSET 9.713100 17.437393 -1.325900
							CHANNELS 3 Xrotation Yrotation Zrotation
							JOINT HairC1
							{
								OFFSET 3.290300 -11.051193 1.062200
								CHANNELS 3 Xrotation Yrotation Zrotation
								End Site
								{
									OFFSET 0.000000 11.579437 0.000000
								}
							}
						}
					}
				}
				JOINT LeftShoulder
				{
					OFFSET 5.101800 15.108002 -2.763700
					CHANNELS 3 Xrotation Yrotation Zrotation
					JOINT LeftArm
					{
						OFFSET 9.825497 2.506317 -1.597400
						CHANNELS 3 Xrotation Yrotation Zrotation
						JOINT LeftForeArm
						{
							OFFSET 21.966244 0.000000 0.000000
							CHANNELS 3 Xrotation Yrotation Zrotation
							JOINT LeftHand
							{
								OFFSET 33.879036 0.000000 0.000000
								CHANNELS 3 Xrotation Yrotation Zrotation
								JOINT LeftHandThumb1
								{
									OFFSET 6.715286 -2.359680 3.363841
									CHANNELS 3 Xrotation Yrotation Zrotation
									JOINT LeftHandThumb2
									{
										OFFSET 2.507072 -1.447464 1.447461
										CHANNELS 3 Xrotation Yrotation Zrotation
										JOINT LeftHandThumb3
										{
											OFFSET 2.898338 -1.673355 1.673357
											CHANNELS 3 Xrotation Yrotation Zrotation
											End Site
											{
												OFFSET -0.295959 3.727692 -0.131651
											}
										}
									}
								}
								JOINT LeftHandIndex1
								{
									OFFSET 14.190811 -0.254547 3.840278
									CHANNELS 3 Xrotation Yrotation Zrotation
									JOINT LeftHandIndex2
									{
										OFFSET 3.551727 0.000000 -0.000000
										CHANNELS 3 Xrotation Yrotation Zrotation
										JOINT LeftHandIndex3
										{
											OFFSET 2.894196 0.000000 0.000000
											CHANNELS 3 Xrotation Yrotation Zrotation
											End Site
											{
												OFFSET -1.000603 2.690872 0.366626
											}
										}
									}
								}
								JOINT LeftHandMiddle1
								{
									OFFSET 13.776489 0.000000 0.000000
									CHANNELS 3 Xrotation Yrotation Zrotation
									JOINT LeftHandMiddle2
									{
										OFFSET 3.438232 0.000000 0.000000
										CHANNELS 3 Xrotation Yrotation Zrotation
										JOINT LeftHandMiddle3
										{
											OFFSET 3.691551 0.000000 0.000000
											CHANNELS 3 Xrotation Yrotation Zrotation
											End Site
											{
												OFFSET -1.082298 3.499527 0.457670
											}
										}
									}
								}
								JOINT LeftHandRing1
								{
									OFFSET 13.966164 -0.268127 -3.067488
									CHANNELS 3 Xrotation Yrotation Zrotation
									JOINT LeftHandRing2
									{
										OFFSET 3.162567 0.000000 0.000000
										CHANNELS 3 Xrotation Yrotation Zrotation
										JOINT LeftHandRing3
										{
											OFFSET 3.324348 0.000000 0.000000
											CHANNELS 3 Xrotation Yrotation Zrotation
											End Site
											{
												OFFSET -0.861900 3.184998 0.405154
											}
										}
									}
								}
								JOINT LeftHandPinky1
								{
									OFFSET 13.131393 -0.168503 -5.746925
									CHANNELS 3 Xrotation Yrotation Zrotation
									JOINT LeftHandPinky2
									{
										OFFSET 2.849182 0.000000 0.000000
										CHANNELS 3 Xrotation Yrotation Zrotation
										JOINT LeftHandPinky3
										{
											OFFSET 2.805038 0.000000 0.000000
											CHANNELS 3 Xrotation Yrotation Zrotation
											End Site
											{
												OFFSET -0.882500 2.642609 0.325652
											}
										}
									}
								}
							}
							JOINT Left_Sleeve
							{
								OFFSET 6.592125 -0.646545 0.805568
								CHANNELS 3 Xrotation Yrotation Zrotation
								End Site
								{
									OFFSET -0.000179 20.275787 -0.000000
								}
							}
						}
					}
				}
				JOINT RightShoulder
				{
					OFFSET -5.731700 15.108002 -2.763700
					CHANNELS 3 Xrotation Yrotation Zrotation
					JOINT RightArm
					{
						OFFSET -9.825497 2.506317 -1.597400
						CHANNELS 3 Xrotation Yrotation Zrotation
						JOINT RightForeArm
						{
							OFFSET -21.966242 0.000000 0.000000
							CHANNELS 3 Xrotation Yrotation Zrotation
							JOINT RightHand
							{
								OFFSET -33.879032 0.000000 0.000000
								CHANNELS 3 Xrotation Yrotation Zrotation
								JOINT RightHandThumb1
								{
									OFFSET -6.715286 -2.359680 3.363841
									CHANNELS 3 Xrotation Yrotation Zrotation
									JOINT RightHandThumb2
									{
										OFFSET -2.507072 -1.447464 1.447461
										CHANNELS 3 Xrotation Yrotation Zrotation
										JOINT RightHandThumb3
										{
											OFFSET -2.898338 -1.673355 1.673357
											CHANNELS 3 Xrotation Yrotation Zrotation
											End Site
											{
												OFFSET 0.295959 3.727692 -0.131651
											}
										}
									}
								}
								JOINT RightHandIndex1
								{
									OFFSET -14.190811 -0.254547 3.840278
									CHANNELS 3 Xrotation Yrotation Zrotation
									JOINT RightHandIndex2
									{
										OFFSET -3.551727 0.000000 -0.000000
										CHANNELS 3 Xrotation Yrotation Zrotation
										JOINT RightHandIndex3
										{
											OFFSET -2.894196 0.000000 0.000000
											CHANNELS 3 Xrotation Yrotation Zrotation
											End Site
											{
												OFFSET 1.000603 2.690872 0.366626
											}
										}
									}
								}
								JOINT RightHandMiddle1
								{
									OFFSET -13.776489 0.000000 0.000000
									CHANNELS 3 Xrotation Yrotation Zrotation
									JOINT RightHandMiddle2
									{
										OFFSET -3.438232 0.000000 0.000000
										CHANNELS 3 Xrotation Yrotation Zrotation
										JOINT RightHandMiddle3
										{
											OFFSET -3.691551 0.000000 0.000000
											CHANNELS 3 Xrotation Yrotation Zrotation
											End Site
											{
												OFFSET 1.082298 3.499527 0.457670
											}
										}
									}
								}
								JOINT RightHandRing1
								{
									OFFSET -13.966164 -0.268127 -3.067488
									CHANNELS 3 Xrotation Yrotation Zrotation
									JOINT RightHandRing2
									{
										OFFSET -3.162567 0.000000 0.000000
										CHANNELS 3 Xrotation Yrotation Zrotation
										JOINT RightHandRing3
										{
											OFFSET -3.324348 0.000000 0.000000
											CHANNELS 3 Xrotation Yrotation Zrotation
											End Site
											{
												OFFSET 0.861900 3.184998 0.405154
											}
										}
									}
								}
								JOINT RightHandPinky1
								{
									OFFSET -13.131393 -0.168503 -5.746925
									CHANNELS 3 Xrotation Yrotation Zrotation
									JOINT RightHandPinky2
									{
										OFFSET -2.849182 0.000000 0.000000
										CHANNELS 3 Xrotation Yrotation Zrotation
										JOINT RightHandPinky3
										{
											OFFSET -2.805038 0.000000 0.000000
											CHANNELS 3 Xrotation Yrotation Zrotation
											End Site
											{
												OFFSET 0.882500 2.642609 0.325652
											}
										}
									}
								}
							}
							JOINT Right_Sleeve
							{
								OFFSET -6.592125 -0.646545 0.805568
								CHANNELS 3 Xrotation Yrotation Zrotation
								End Site
								{
									OFFSET 0.000179 20.275787 -0.000000
								}
							}
						}
					}
				}
				JOINT Bind_Right_JacketString
				{
					OFFSET -3.534800 11.969597 7.200700
					CHANNELS 3 Xrotation Yrotation Zrotation
					JOINT Bind_Right_JacketString1
					{
						OFFSET -0.319900 -6.102600 2.794100
						CHANNELS 3 Xrotation Yrotation Zrotation
						End Site
						{
							OFFSET 0.000000 6.719452 0.000000
						}
					}
				}
				JOINT Bind_Left_JacketString
				{
					OFFSET 2.904800 11.969597 7.200700
					CHANNELS 3 Xrotation Yrotation Zrotation
					JOINT Bind_Left_JacketString1
					{
						OFFSET 0.364800 -5.904503 3.186800
						CHANNELS 3 Xrotation Yrotation Zrotation
						End Site
						{
							OFFSET 0.000000 6.719513 0.000000
						}
					}
				}
				JOINT HairE
				{
					OFFSET 5.915200 17.612701 -11.592200
					CHANNELS 3 Xrotation Yrotation Zrotation
					JOINT HairE1
					{
						OFFSET 0.289200 -7.171898 -1.284500
						CHANNELS 3 Xrotation Yrotation Zrotation
						End Site
						{
							OFFSET 0.000000 7.291756 0.000000
						}
					}
				}
				JOINT HairF
				{
					OFFSET -0.864800 17.612701 -11.592200
					CHANNELS 3 Xrotation Yrotation Zrotation
					JOINT HairF1
					{
						OFFSET 0.000000 -14.087097 -2.127501
						CHANNELS 3 Xrotation Yrotation Zrotation
						End Site
						{
							OFFSET 0.000000 14.246841 0.000000
						}
					}
				}
				JOINT HairG
				{
					OFFSET -8.087700 17.612701 -11.592200
					CHANNELS 3 Xrotation Yrotation Zrotation
					JOINT HairG1
					{
						OFFSET -0.293600 -6.081398 -0.910100
						CHANNELS 3 Xrotation Yrotation Zrotation
						End Site
						{
							OFFSET 0.000000 6.156120 0.000000
						}
					}
				}
			}
		}
	}
	JOINT Pouch
	{
		OFFSET 0.000000 4.394501 10.847300
		CHANNELS 3 Xrotation Yrotation Zrotation
		End Site
		{
			OFFSET 0.000000 21.880577 0.000000
		}
	}
	JOINT Bag
	{
		OFFSET -13.229000 4.813004 -0.593300
		CHANNELS 3 Xrotation Yrotation Zrotation
		End Site
		{
			OFFSET 0.000000 21.880577 0.000000
		}
	}
	JOINT OccupyGuyFacialAnim_Joint
	{
		OFFSET 1.000000 -70.206398 -1.655000
		CHANNELS 3 Xrotation Yrotation Zrotation
		End Site
		{
			OFFSET 0.000000 21.880577 0.000000
		}
	}
}
MOTION
Frames: 4
Frame Time: 0.016667
-0.863847 63.626152 0.767578 3.013709 -58.244582 6.565743 -0.000000 -0.000000 0.000000 -32.631198 11.146649 23.555127 43.784699 -8.044058 -9.928247 -13.051216 -2.688593 -7.268575 0.000000 0.000002 0.000000 0.000001 0.000003 0.000001 -30.698794 -9.740770 -24.750181 48.833844 2.532475 -7.653561 -22.404274 2.481597 19.801603 0.000000 -0.000000 -0.000000 -0.000001 -0.000001 0.000000 11.191582 0.099382 -2.783212 8.434587 0.027706 -5.592325 8.457060 0.027859 -5.591870 -21.555645 25.063369 12.062567 -0.294040 25.465752 -3.208974 -0.000000 -0.000000 0.000001 -0.000000 -0.000000 0.000001 -0.000000 -0.000000 0.000001 -0.000000 -0.000000 -0.000000 -0.000000 -0.000000 -0.000000 -0.000000 -0.000000 -0.000000 -0.000000 -0.000000 -0.000000 -0.000000 -0.000000 0.000001 -0.000000 -0.000000 0.000001 -6.221672 -11.503858 -4.023830 -23.062173 9.568550 -36.639600 0.046107 -43.169135 -0.011174 22.743762 -5.685875 15.979282 -1.064235 -7.954908 8.490087 2.373408 19.986098 -2.038342 0.000000 -0.000000 0.000001 13.340875 -1.006658 10.682263 -0.167587 0.303379 -31.105624 0.000000 -0.000003 -0.000004 8.495441 -0.329564 -0.915306 0.231515 0.661198 -29.901865 -0.000002 -0.000000 -0.000001 6.111749 3.150908 -16.210961 0.047070 0.322399 -30.125485 -0.000001 0.000000 -0.000005 -5.636019 7.709863 -13.878617 0.224385 0.276613 -46.588379 -0.000000 -0.000002 0.000001 0.000001 0.000000 -0.000004 -5.488235 10.658250 2.466542 -41.473797 -26.755565 30.079088 24.955513 111.862974 -23.308514 -8.702493 12.423052 -9.801971 0.265013 10.061110 -10.888493 1.383810 -17.412864 3.016283 -0.000001 -0.000003 0.000002 19.443604 11.174440 -13.340189 -0.118640 -0.322726 18.035596 0.000000 0.000002 -0.000001 4.320474 2.436956 -4.811727 0.349142 -0.461247 26.890328 0.000000 0.000004 -0.000004 -7.005637 -10.695120 5.719842 0.111869 -0.089232 26.155888 0.000001 -0.000003 -0.000003 -19.433502 -20.238206 5.987876 0.223755 -0.085823 36.844564 -0.000002 0.000005 0.000003 0.000001 0.000003 -0.000001 -0.000000 0.000003 -0.000002 0.000001 0.000003 -0.000002 -0.000000 0.000003 -0.000000 -0.000000 0.000003 -0.000000 -0.000000 0.000003 -0.000002 0.000001 0.000003 -0.000002 -0.000000 0.000003 -0.000000 -0.000000 0.000003 -0.000000 -0.000000 0.000003 -0.000002 0.000001 0.000003 -0.000002 -0.000000 -0.000000 0.000000 -0.000000 -0.000000 0.000000 -0.000000 -0.000000 0.000000 
-0.897679 63.599693 0.828852 2.475653 -58.239787 6.032001 0.000000 -0.000000 -0.000000 -32.440728 11.094623 23.604367 44.059047 -8.120608 -9.843203 -13.253657 -2.639442 -7.270138 -0.000000 -0.000002 0.000000 -0.000001 -0.000001 -0.000001 -30.620684 -10.188533 -25.232093 48.985140 3.203142 -7.249657 -22.501614 2.596035 19.371281 -0.000000 0.000002 0.000000 -0.000002 -0.000001 0.000001 11.181231 0.087560 -2.759226 8.413338 0.007718 -5.542175 8.435800 0.007776 -5.541683 -21.652147 24.945116 12.088953 0.094813 25.159311 -2.954653 0.000000 -0.000000 -0.000000 0.000000 -0.000000 -0.000000 0.000000 -0.000000 0.000000 0.000000 -0.000000 -0.000000 0.000000 0.000000 -0.000000 0.000000 -0.000000 -0.000000 0.000000 0.000000 -0.000000 0.000000 -0.000000 -0.000000 0.000000 -0.000000 -0.000000 -6.261263 -11.506435 -4.015211 -22.811109 9.698551 -36.516606 0.794409 -43.624107 0.229699 22.724115 -5.775180 15.786083 -1.337168 -8.592340 8.462113 2.372313 19.986677 -2.038323 0.000001 0.000002 0.000000 13.509673 -1.097530 9.424769 -0.159038 0.305424 -31.104070 0.000001 0.000003 0.000004 8.477592 -0.230330 -1.799018 0.234812 0.664030 -29.734347 -0.000000 0.000002 0.000001 6.088936 3.437366 -16.790622 0.051259 0.330279 -29.912103 0.000001 0.000002 0.000001 -5.699337 8.273529 -13.976715 0.209849 0.283982 -46.588495 -0.000001 0.000000 -0.000001 0.000002 0.000001 -0.000002 -5.513962 10.443168 2.326543 -40.253481 -26.263800 30.874292 22.710857 111.299483 -21.321747 -8.758550 12.223523 -9.454595 -0.163827 10.339072 -11.464026 1.370529 -17.420143 3.013296 0.000000 0.000000 -0.000000 19.534085 10.739038 -14.196812 -0.102113 -0.326656 17.430848 0.000001 -0.000000 -0.000002 4.417748 2.218602 -5.481780 0.352840 -0.461277 26.461893 0.000001 -0.000001 0.000008 -6.982937 -10.920051 5.218393 0.085176 -0.090072 25.880164 -0.000003 0.000000 0.000001 -19.427659 -20.205255 5.922307 0.228598 -0.095106 36.799546 0.000003 -0.000001 0.000002 0.000002 0.000003 0.000003 0.000002 0.000001 -0.000002 0.000003 0.000000 0.000001 0.000002 0.000001 -0.000003 0.000002 0.000001 -0.000003 0.000002 0.000001 -0.000002 0.000003 0.000000 0.000001 0.000002 0.000001 -0.000003 0.000002 0.000001 -0.000003 0.000002 0.000001 -0.000002 0.000003 0.000000 0.000001 0.000000 -0.000000 -0.000000 0.000000 -0.000000 -0.000000 0.000000 -0.000000 -0.000000 
-1.010201 63.507729 0.998844 1.754927 -58.181805 5.323903 -0.000000 -0.000003 0.000000 -32.245388 10.968229 23.726528 44.733747 -8.324907 -9.830803 -13.772229 -2.585016 -7.188814 0.000000 0.000000 -0.000000 -0.000003 -0.000002 -0.000000 -30.380746 -10.595649 -25.729487 49.319075 3.781220 -6.963281 -22.818581 2.622755 19.164534 -0.000000 0.000000 -0.000000 -0.000001 -0.000002 -0.000001 11.142250 0.056059 -2.694686 8.334208 -0.045756 -5.404248 8.356668 -0.045665 -5.403786 -21.836692 24.626035 12.153090 0.665322 24.715287 -2.781582 0.000000 0.000000 -0.000000 0.000000 0.000000 -0.000000 0.000000 0.000000 -0.000000 0.000000 0.000000 -0.000000 0.000000 0.000000 -0.000000 0.000000 0.000000 -0.000000 0.000000 0.000000 -0.000000 0.000000 0.000000 -0.000000 0.000000 0.000000 -0.000000 -6.328843 -11.488487 -3.983639 -22.131666 10.073033 -36.144026 2.769391 -44.886869 0.926403 22.664441 -6.014884 15.253925 -1.443747 -9.455566 7.932148 2.372338 19.986681 -2.038382 0.000002 -0.000000 0.000001 13.845184 -1.532817 7.580808 -0.159341 0.304552 -30.882885 -0.000000 -0.000000 0.000001 8.524448 -0.343996 -3.219837 0.234607 0.663869 -29.653010 0.000000 0.000003 0.000003 6.136558 3.595721 -17.915514 0.051091 0.329948 -29.853606 -0.000001 0.000000 -0.000003 -5.678633 8.863554 -14.718658 0.209859 0.283913 -46.588536 -0.000000 -0.000001 0.000001 0.000004 0.000000 0.000001 -5.548067 9.865995 1.937135 -37.030540 -24.874070 32.856922 15.981676 109.909184 -15.220803 -8.898756 11.688153 -8.523739 -1.286788 11.106086 -12.958751 1.370535 -17.420152 3.013325 -0.000000 -0.000001 0.000000 19.732842 9.623650 -16.324687 -0.104588 -0.322124 15.920302 -0.000002 0.000000 0.000002 4.635094 1.638533 -7.129003 0.347178 -0.458707 25.403425 -0.000000 0.000001 0.000005 -6.943911 -11.513895 4.011800 0.085693 -0.087037 25.221616 -0.000000 -0.000002 -0.000006 -19.419923 -20.160461 5.828228 0.228569 -0.095043 36.736538 -0.000001 0.000002 0.000001 0.000000 0.000001 0.000003 -0.000001 -0.000001 0.000001 0.000001 0.000002 -0.000002 -0.000001 -0.000001 0.000001 -0.000001 -0.000001 0.000001 -0.000001 -0.000001 0.000001 0.000001 0.000002 -0.000002 -0.000001 -0.000001 0.000001 -0.000001 -0.000001 0.000001 -0.000001 -0.000001 0.000001 0.000001 0.000002 -0.000002 -0.000000 -0.000003 0.000000 -0.000000 -0.000003 0.000000 -0.000000 -0.000003 0.000000 
-1.188366 63.385391 1.246914 0.907979 -58.067666 4.487243 0.000000 -0.000001 -0.000000 -32.014476 10.877208 23.967952 45.563335 -8.722866 -9.934706 -14.453382 -2.540912 -6.982595 -0.000000 -0.000002 0.000000 0.000000 0.000001 -0.000002 -29.940237 -10.969835 -26.155907 49.683810 4.188343 -6.803138 -23.262231 2.584566 19.129960 -0.000000 0.000000 0.000000 -0.000001 0.000001 -0.000000 11.077118 0.009663 -2.598071 8.202123 -0.124053 -5.198299 8.224621 -0.123948 -5.197831 -22.026534 24.153040 12.233262 1.675681 24.083961 -2.871055 0.000000 0.000001 0.000001 0.000000 0.000001 0.000001 0.000000 0.000001 0.000001 0.000000 0.000001 -0.000000 0.000001 0.000000 0.000001 0.000000 0.000001 -0.000000 0.000001 0.000000 0.000001 0.000000 0.000001 0.000001 0.000000 0.000001 0.000001 -6.417288 -11.419003 -3.918486 -21.132125 10.674321 -35.524449 5.610335 -46.795484 2.096751 22.562480 -6.361040 14.453076 -1.492389 -10.414538 7.157429 2.372322 19.986669 -2.038316 0.000000 -0.000000 0.000001 14.236170 -2.165275 5.410893 -0.159334 0.304517 -30.877147 -0.000000 0.000003 0.000000 8.587911 -0.569236 -4.948590 0.234561 0.663846 -29.620208 0.000001 -0.000001 0.000004 6.219792 3.684089 -19.350752 0.051113 0.329978 -29.860218 -0.000001 -0.000000 0.000003 -5.600360 9.470244 -15.793788 0.209854 0.283952 -46.588543 -0.000000 -0.000001 0.000003 0.000001 0.000000 0.000001 -5.599957 9.021888 1.345355 -32.495110 -22.695863 35.348131 4.343994 108.342120 -4.332272 -9.075109 10.910034 -7.177488 -2.857435 12.259156 -15.019043 1.370553 -17.420169 3.013335 0.000001 0.000002 -0.000003 19.872225 8.134579 -19.053716 -0.107675 -0.316125 13.960270 -0.000000 0.000004 -0.000004 4.859952 0.812344 -9.209673 0.340103 -0.454426 24.055609 0.000003 0.000003 -0.000002 -6.928770 -12.352436 2.546293 0.086254 -0.083352 24.433243 -0.000000 -0.000003 -0.000001 -19.409231 -20.187468 5.864943 0.228649 -0.095088 36.763719 -0.000000 0.000000 -0.000001 -0.000000 -0.000003 0.000001 -0.000000 0.000002 -0.000000 -0.000000 -0.000002 0.000001 -0.000000 0.000002 -0.000001 -0.000000 0.000002 -0.000001 -0.000000 0.000002 -0.000000 -0.000000 -0.000002 0.000001 -0.000000 0.000002 -0.000001 -0.000000 0.000002 -0.000001 -0.000000 0.000002 -0.000000 -0.000000 -0.000002 0.000001 0.000000 -0.000001 -0.000000 0.000000 -0.000001 -0.000000 0.000000 -0.000001 -0.000000 
